<?xml version="1.0" encoding="utf-8"?>
<!-- Generator: Adobe Illustrator 23.0.1, SVG Export Plug-In . SVG Version: 6.00 Build 0)  -->
<svg version="1.1" id="ORIGINAL_2_copy_2" xmlns="http://www.w3.org/2000/svg" xmlns:xlink="http://www.w3.org/1999/xlink" x="0px"
	 y="0px" viewBox="0 0 284 69" style="enable-background:new 0 0 284 69;" xml:space="preserve">
<style type="text/css">
	.st0{display:none;fill:#FFCD00;}
	.st1{fill:#E40017;}
	.st2{fill:#FFCD00;}
	.st3{fill:#1D1D1D;}
</style>
<path class="st0" d="M790.6,86.9c-148.2,0-290.1-54.7-399.5-154.1c-108.6-98.7-176.4-232.9-190.7-377.8c-1.8-18.3-2.9-51.1-2.9-72.1
	v-782.7h1186.2v782.7c0,21.1-1.1,53.8-2.9,72.1c-14.4,145-82.1,279.2-190.7,377.9C1080.6,32.2,938.8,86.9,790.6,86.9z"/>
<g>
	<path class="st1" d="M0,0v38.3c0,1,0.1,2.6,0.1,3.6C1.7,57.1,14.6,69,30.2,69c15.7,0,28.6-11.9,30.1-27.1c0.1-1,0.1-2.6,0.1-3.6V0
		H0z"/>
	<path class="st2" d="M31,50.1C31,50.1,31.1,50.1,31,50.1C31.1,50.1,31.1,50.1,31,50.1c1,3,2.8,5.7,5,8.1c0.9-0.4,1.9-0.7,2.9-1.1
		c-3.7-3.3-6.9-7.6-7.9-12.6c0,0,0,0,0,0c0,0,0,0,0,0c1.5,4.8,5.1,9,9.3,12.1c1.1-0.5,2.3-1,3.3-1.8c-5.5-3.3-11.3-9-12.6-16.1
		c0,0,0,0,0,0c0,0,0,0,0,0c2.1,6.6,8.1,12,14,15c0.8-0.8,1.6-1.8,2.2-3C40.9,48,32.6,41.4,31,32.7c0,0,0,0,0,0c0,0,0,0,0,0
		c2.4,7.6,10.1,13.7,16.8,16.2c0.4-1.4,0.6-3,0.6-4.9C40.4,41.5,31,32,31,22.4h0v-6l-1.6,0v6c0,9.4-10,19.3-17.5,21.5
		c0,1.9,0.2,3.5,0.6,4.9c6.7-2.5,14.4-8.6,16.8-16.2c0,0,0,0,0,0c0,0,0,0,0,0c-1.6,8.7-9.9,15.3-16.2,17.9c0.6,1.2,1.3,2.2,2.2,3
		c5.9-3,11.9-8.4,14-15c0,0,0,0,0,0c0,0,0,0,0,0c-1.3,7.1-7.1,12.8-12.6,16.1c1,0.7,2.2,1.3,3.3,1.8c4.1-3.1,7.7-7.3,9.3-12.1
		c0,0,0,0,0,0c0,0,0,0,0,0c-0.9,5-4.1,9.4-7.9,12.6c1,0.4,2,0.7,2.9,1.1c2.2-2.4,4-5.2,4.9-8.2c0,0,0,0,0,0c0,0,0,0,0,0
		c-0.6,3.2-2.1,6.1-4,8.6c2.3,1.1,4,2.5,4,5.4v0l1.4,0l0.2,0c0,0,0,0,0,0h0v0c0-2.9,1.7-4.3,4-5.4C33.1,56.2,31.6,53.3,31,50.1z"/>
	<g>
		
			<ellipse transform="matrix(1.745241e-02 -0.9998 0.9998 1.745241e-02 30.1605 66.9995)" class="st2" cx="49.2" cy="18.2" rx="1.8" ry="1.8"/>
		<path class="st2" d="M54.8,27.4C52.1,34,40.1,34.1,38,26.5c1.1,1.9,3.1,3.4,6.2,3.4C50.3,30,55.4,25,55.5,18.7c0-0.3,0-0.6,0-0.9
			c0-0.3,0-0.5-0.1-0.8c-0.1-0.8-0.3-1.6-0.5-2.3c-0.7-2.3-1.6-4.5-1.3-7c0.2,0.1,0.3,0.1,0.5,0.1c0.8,0,1.4-0.6,1.4-1.4
			c0-0.8-0.6-1.4-1.4-1.4c-0.7,0-1.4,0.4-1.8,1.3c-0.6,1.3-0.2,3.2,0.3,4.6c-2-2.3-3.9-3.8-8-3.8c-3.4,0-9.9,1-11.2-2.6
			c-0.4,0.6-0.6,1.4-0.6,2.2c-0.1,3.1,3.5,3.5,3.6,3.5c-4.1,4,0.8,9.4,4.8,6.2c0.4-0.3,0.8-0.8,0.9-1.2c-0.3,0.1-0.6,0.2-0.9,0.2
			c-1.2,0-2.2-0.8-2.6-1.8c-0.1-0.3-0.2-0.6-0.2-0.9c0-0.2,0-0.3,0-0.5c0.5-2.2,2.8-3.8,6.8-3.8c-4.4,0.9-4,5-3,5.2c0,0,0-0.2,0-0.3
			c0-1.7,1.9-3.4,4.5-3.4c3.2,0,5.2,2.5,5.9,3.8c-0.8-0.6-1.7-0.9-2.8-1c-2.6,0-4.8,2.1-4.9,4.7c0,0.9,0.5,2.6,2.1,2.9
			c-2-2.6-0.2-5,2-5.1c2.3,0,4,1.9,4,4.2c0,3.6-3.7,6.2-7.7,6.2c-1.6,0-3.3-0.5-4.4-1.4c1.1-0.3,1.9-1.3,1.9-2.5
			c0-1.5-1.1-2.7-2.6-2.7c-3.3,0-4,3.4-4,5.1c0,12.6,17.3,14.1,16.2,19.4c0.8-0.5,1-1.6,1-2.4c-0.2-2.7-5.1-5.4-6.1-6.1
			C48.8,35.3,56.5,33.4,54.8,27.4z"/>
	</g>
	<g>
		<path class="st2" d="M6.2,5c2.3-0.2,3,3.4-0.1,6c-0.3,0.3-0.6,0.3-0.7,0.3C5.8,10.9,6.9,9,6.6,7.7C5.7,7.8,5.1,7.3,5,6.6
			C4.8,5.8,5.4,5,6.2,5z"/>
		<path class="st2" d="M27.8,6.6c0-0.8-0.2-1.5-0.6-2.2C25.8,8.1,19.3,7,15.9,7C9.4,7,4.9,12.4,5,18.7C5.1,25,10.1,30,16.3,29.9
			c3-0.1,5-1.4,6.1-3.2c0,0,0,0,0,0c-1.9,7-13.6,7.4-16.6,0.6c-1.2,1.1-0.8,3.2,0.4,3.8c-0.6,2.7,3.9,4.4,6.3,3.6
			c-1.7,0.9-7.4,5.3-4.6,8.7c-1.1-5.4,16.2-6.8,16.2-19.1c0-1.2-0.4-5.4-4-5.4c-1.5,0-2.6,1.2-2.6,2.7c0,1.2,0.8,2.2,1.9,2.5
			c-1.1,1-2.8,1.4-4.4,1.4c-2.8,0-7.9-1.5-7.9-6.6c0-2.2,1.7-4,3.9-4c1.2,0,2.3,0.5,3,1.3c-0.3-0.2-0.7-0.4-1.2-0.4
			c-1.1,0-1.9,0.9-1.9,2c0,1.1,0.9,1.9,2,1.9c1.8,0,2-1.9,2-1.8c0.1-0.3,0.1-0.6,0.1-0.9c0-2.5-2.1-4.5-4.7-4.5
			c-0.8,0-1.5,0.2-2.2,0.6c2-3,4.6-3.3,5.6-3.3c2.7,0,4.5,1.6,4.5,3.4c0,0.2,0,0.3,0,0.5c1.2-0.7,1.1-4.6-3-5.3
			c3.6-0.1,6.3,1.5,6.8,3.8c0,0.2,0,0.3,0,0.5c0,0.3-0.1,0.6-0.2,0.9c-0.4,1.1-1.4,1.8-2.6,1.8c-0.3,0-0.6-0.1-0.9-0.2
			c0.1,0.4,0.5,0.9,0.9,1.2c4,3.2,9-2.3,4.8-6.2C24.3,10.1,27.8,9.7,27.8,6.6z"/>
	</g>
</g>
<g>
	<g>
		<g>
			<path class="st3" d="M80.5,30.4L76,15.7l0-0.1c0-0.1,0.1-0.2,0.2-0.2h2.8c0.2,0,0.3,0.1,0.3,0.2l2.9,10.7c0,0,0,0.1,0.1,0.1
				c0,0,0.1,0,0.1-0.1l2.9-10.7c0-0.1,0.1-0.2,0.3-0.2h2.7c0.1,0,0.2,0,0.2,0.1c0,0.1,0.1,0.1,0,0.2l-4.6,14.8
				c0,0.1-0.1,0.2-0.3,0.2h-2.8C80.6,30.7,80.5,30.6,80.5,30.4z"/>
			<path class="st3" d="M99.1,25.7c0,0.2-0.1,0.3-0.3,0.3H92c-0.1,0-0.1,0-0.1,0.1c0,0.3,0.1,0.6,0.2,0.9c0.4,0.8,1.2,1.2,2.3,1.2
				c0.9,0,1.7-0.4,2.2-1.1c0.1-0.1,0.1-0.1,0.2-0.1c0,0,0.1,0,0.2,0.1l1.6,1.6c0.1,0.1,0.1,0.1,0.1,0.2c0,0,0,0.1-0.1,0.2
				c-0.5,0.6-1.1,1.1-1.9,1.4c-0.8,0.3-1.6,0.5-2.5,0.5c-1.3,0-2.3-0.3-3.2-0.9c-0.9-0.6-1.5-1.4-1.9-2.4c-0.3-0.7-0.5-1.7-0.5-2.9
				c0-0.8,0.1-1.5,0.3-2.1c0.3-1,0.9-1.9,1.8-2.5c0.8-0.6,1.8-0.9,3-0.9c1.5,0,2.6,0.4,3.5,1.3c0.9,0.8,1.4,2,1.6,3.4
				C99.1,24.4,99.1,25.1,99.1,25.7z M92.1,23.2c-0.1,0.2-0.1,0.4-0.2,0.7c0,0.1,0,0.1,0.1,0.1h3.8c0.1,0,0.1,0,0.1-0.1
				c-0.1-0.4-0.1-0.6-0.1-0.6c-0.1-0.4-0.4-0.8-0.7-1c-0.3-0.2-0.7-0.4-1.2-0.4C93,21.9,92.4,22.3,92.1,23.2z"/>
			<path class="st3" d="M103,30.4c-0.7-0.3-1.3-0.7-1.7-1.2c-0.4-0.5-0.6-1.1-0.6-1.7v-0.2c0-0.1,0-0.1,0.1-0.2
				c0.1-0.1,0.1-0.1,0.2-0.1h2.4c0.1,0,0.1,0,0.2,0.1c0.1,0.1,0.1,0.1,0.1,0.2v0c0,0.3,0.2,0.6,0.5,0.8c0.4,0.2,0.8,0.3,1.3,0.3
				c0.5,0,0.9-0.1,1.2-0.3c0.3-0.2,0.5-0.4,0.5-0.7c0-0.3-0.1-0.5-0.4-0.6c-0.3-0.1-0.7-0.3-1.3-0.4c-0.7-0.2-1.2-0.3-1.6-0.5
				c-0.9-0.3-1.7-0.7-2.2-1.2c-0.6-0.5-0.8-1.1-0.8-2c0-1.1,0.4-1.9,1.3-2.6c0.8-0.6,1.9-1,3.3-1c0.9,0,1.7,0.1,2.4,0.4
				c0.7,0.3,1.2,0.7,1.6,1.3c0.4,0.5,0.6,1.2,0.6,1.8c0,0.1,0,0.1-0.1,0.2c-0.1,0.1-0.1,0.1-0.2,0.1h-2.3c-0.1,0-0.1,0-0.2-0.1
				c-0.1-0.1-0.1-0.1-0.1-0.2c0-0.3-0.2-0.6-0.5-0.8c-0.3-0.2-0.8-0.3-1.3-0.3c-0.5,0-0.9,0.1-1.2,0.3c-0.3,0.2-0.5,0.4-0.5,0.7
				c0,0.3,0.1,0.5,0.4,0.7c0.3,0.1,0.8,0.3,1.5,0.5c0.2,0,0.3,0.1,0.5,0.1c0.2,0.1,0.4,0.1,0.7,0.2c1,0.3,1.9,0.7,2.4,1.2
				c0.6,0.5,0.9,1.2,0.9,2.1c0,1.1-0.4,1.9-1.3,2.5c-0.9,0.6-2,0.9-3.4,0.9C104.5,30.8,103.7,30.7,103,30.4z"/>
			<path class="st3" d="M118.6,21.8c-0.1,0.1-0.1,0.1-0.2,0.1h-2.1c-0.1,0-0.1,0-0.1,0.1v4.6c0,0.5,0.1,0.8,0.3,1.1
				c0.2,0.2,0.5,0.3,1,0.3h0.7c0.1,0,0.1,0,0.2,0.1c0.1,0.1,0.1,0.1,0.1,0.2v2.1c0,0.2-0.1,0.3-0.3,0.3c-0.6,0-1,0-1.3,0
				c-1.2,0-2.1-0.2-2.7-0.6c-0.6-0.4-0.9-1.2-0.9-2.3V22c0-0.1,0-0.1-0.1-0.1h-1.2c-0.1,0-0.1,0-0.2-0.1c-0.1-0.1-0.1-0.1-0.1-0.2
				v-1.9c0-0.1,0-0.1,0.1-0.2c0.1-0.1,0.1-0.1,0.2-0.1h1.2c0.1,0,0.1,0,0.1-0.1v-2.6c0-0.1,0-0.1,0.1-0.2c0.1-0.1,0.1-0.1,0.2-0.1
				h2.4c0.1,0,0.1,0,0.2,0.1c0.1,0.1,0.1,0.1,0.1,0.2v2.6c0,0.1,0,0.1,0.1,0.1h2.1c0.1,0,0.1,0,0.2,0.1c0.1,0.1,0.1,0.1,0.1,0.2v1.9
				C118.7,21.7,118.6,21.8,118.6,21.8z"/>
			<path class="st3" d="M127.4,19.5c0.1,0.1,0.1,0.1,0.1,0.2v2.1c0,0.1,0,0.1-0.1,0.2c-0.1,0.1-0.1,0.1-0.2,0.1h-2.1
				c-0.1,0-0.1,0-0.1,0.1v8.3c0,0.1,0,0.1-0.1,0.2c-0.1,0.1-0.1,0.1-0.2,0.1h-2.6c-0.1,0-0.1,0-0.2-0.1c-0.1-0.1-0.1-0.1-0.1-0.2
				v-8.3c0-0.1,0-0.1-0.1-0.1h-1.3c-0.1,0-0.1,0-0.2-0.1c-0.1-0.1-0.1-0.1-0.1-0.2v-2.1c0-0.1,0-0.1,0.1-0.2
				c0.1-0.1,0.1-0.1,0.2-0.1h1.3c0.1,0,0.1,0,0.1-0.1v-0.5c0-0.9,0.1-1.6,0.4-2.1c0.3-0.5,0.7-0.9,1.3-1.1c0.6-0.2,1.5-0.3,2.6-0.3
				h0.8c0.1,0,0.1,0,0.2,0.1c0.1,0.1,0.1,0.1,0.1,0.2v1.8c0,0.1,0,0.1-0.1,0.2c-0.1,0.1-0.1,0.1-0.2,0.1h-0.7
				c-0.5,0-0.9,0.1-1.1,0.3c-0.2,0.2-0.3,0.6-0.3,1.1v0.2c0,0.1,0,0.1,0.1,0.1h2.1C127.3,19.4,127.3,19.4,127.4,19.5z"/>
			<path class="st3" d="M131,29.9c-0.9-0.6-1.5-1.5-1.8-2.6c-0.2-0.7-0.3-1.4-0.3-2.2c0-0.9,0.1-1.6,0.3-2.3
				c0.3-1.1,0.9-1.9,1.8-2.5c0.9-0.6,1.9-0.9,3.1-0.9c1.2,0,2.2,0.3,3.1,0.9c0.8,0.6,1.4,1.4,1.8,2.5c0.2,0.7,0.3,1.5,0.3,2.3
				c0,0.8-0.1,1.5-0.3,2.2c-0.3,1.1-0.9,2-1.8,2.7c-0.9,0.6-1.9,1-3.1,1C132.9,30.8,131.8,30.5,131,29.9z M135.3,27.7
				c0.3-0.3,0.6-0.7,0.7-1.2c0.1-0.5,0.2-1,0.2-1.5c0-0.6-0.1-1.1-0.2-1.6c-0.2-0.5-0.4-0.9-0.7-1.2c-0.3-0.3-0.7-0.4-1.2-0.4
				c-0.5,0-0.9,0.1-1.2,0.4c-0.3,0.3-0.6,0.7-0.7,1.2c-0.1,0.3-0.2,0.9-0.2,1.6c0,0.7,0.1,1.2,0.2,1.5c0.1,0.5,0.4,0.9,0.7,1.2
				c0.3,0.3,0.8,0.4,1.3,0.4C134.6,28.2,135,28,135.3,27.7z"/>
			<path class="st3" d="M141.5,30.6c-0.1-0.1-0.1-0.1-0.1-0.2V15.6c0-0.1,0-0.1,0.1-0.2c0.1-0.1,0.1-0.1,0.2-0.1h2.6
				c0.1,0,0.1,0,0.2,0.1c0.1,0.1,0.1,0.1,0.1,0.2v14.8c0,0.1,0,0.1-0.1,0.2c-0.1,0.1-0.1,0.1-0.2,0.1h-2.6
				C141.7,30.7,141.6,30.6,141.5,30.6z"/>
			<path class="st3" d="M154.1,15.4c0.1-0.1,0.1-0.1,0.2-0.1h2.6c0.1,0,0.1,0,0.2,0.1c0.1,0.1,0.1,0.1,0.1,0.2v14.8
				c0,0.1,0,0.1-0.1,0.2c-0.1,0.1-0.1,0.1-0.2,0.1h-2.6c-0.1,0-0.1,0-0.2-0.1c-0.1-0.1-0.1-0.1-0.1-0.2v-0.7c0,0,0-0.1,0-0.1
				c0,0-0.1,0-0.1,0c-0.6,0.8-1.4,1.2-2.5,1.2c-1,0-1.9-0.3-2.6-0.9c-0.7-0.6-1.3-1.3-1.6-2.3c-0.2-0.8-0.4-1.6-0.4-2.6
				c0-1,0.1-1.9,0.4-2.7c0.3-0.9,0.9-1.7,1.6-2.2c0.7-0.5,1.6-0.8,2.7-0.8c1,0,1.9,0.4,2.4,1.1c0,0,0.1,0.1,0.1,0c0,0,0,0,0-0.1
				v-4.7C154,15.5,154,15.5,154.1,15.4z M154,25c0-1-0.2-1.7-0.5-2.3c-0.3-0.6-0.8-0.9-1.5-0.9c-0.7,0-1.2,0.3-1.6,0.9
				c-0.4,0.6-0.5,1.3-0.5,2.3c0,0.9,0.2,1.6,0.5,2.2c0.4,0.6,0.9,0.9,1.6,0.9c0.7,0,1.2-0.3,1.5-0.9C153.8,26.7,154,26,154,25z"/>
			<path class="st3" d="M166.5,29.9c-0.9-0.6-1.5-1.5-1.8-2.6c-0.2-0.7-0.3-1.4-0.3-2.2c0-0.9,0.1-1.6,0.3-2.3
				c0.3-1.1,0.9-1.9,1.8-2.5c0.9-0.6,1.9-0.9,3.1-0.9c1.2,0,2.2,0.3,3.1,0.9c0.8,0.6,1.4,1.4,1.8,2.5c0.2,0.7,0.3,1.5,0.3,2.3
				c0,0.8-0.1,1.5-0.3,2.2c-0.3,1.1-0.9,2-1.8,2.7c-0.9,0.6-1.9,1-3.1,1C168.4,30.8,167.3,30.5,166.5,29.9z M170.8,27.7
				c0.3-0.3,0.6-0.7,0.7-1.2c0.1-0.5,0.2-1,0.2-1.5c0-0.6-0.1-1.1-0.2-1.6c-0.2-0.5-0.4-0.9-0.7-1.2c-0.3-0.3-0.7-0.4-1.2-0.4
				c-0.5,0-0.9,0.1-1.2,0.4c-0.3,0.3-0.6,0.7-0.7,1.2c-0.1,0.3-0.2,0.9-0.2,1.6c0,0.7,0.1,1.2,0.2,1.5c0.1,0.5,0.4,0.9,0.7,1.2
				c0.3,0.3,0.8,0.4,1.3,0.4C170.1,28.2,170.5,28,170.8,27.7z"/>
			<path class="st3" d="M183.9,19.5c0.1-0.1,0.1-0.1,0.2-0.1h2.6c0.1,0,0.1,0,0.2,0.1c0.1,0.1,0.1,0.1,0.1,0.2v10
				c0,1.9-0.6,3.3-1.7,4.1c-1.1,0.8-2.5,1.2-4.3,1.2c-0.5,0-1.1,0-1.7-0.1c-0.1,0-0.2-0.1-0.2-0.3l0.1-2.3c0-0.2,0.1-0.3,0.3-0.2
				c0.5,0.1,1,0.1,1.4,0.1c0.9,0,1.7-0.2,2.2-0.6c0.5-0.4,0.8-1.1,0.8-2c0,0,0-0.1,0-0.1c0,0-0.1,0-0.1,0c-0.6,0.6-1.4,0.9-2.4,0.9
				c-0.9,0-1.8-0.2-2.6-0.7c-0.8-0.5-1.4-1.2-1.7-2.2c-0.2-0.7-0.3-1.5-0.3-2.6c0-1.1,0.1-2.1,0.4-2.8c0.3-0.9,0.8-1.6,1.6-2.1
				c0.7-0.5,1.6-0.8,2.5-0.8c1.1,0,2,0.3,2.6,1c0,0,0.1,0,0.1,0c0,0,0,0,0-0.1v-0.5C183.8,19.6,183.8,19.5,183.9,19.5z M183.8,24.9
				c0-0.5,0-0.8,0-1c0-0.2-0.1-0.5-0.2-0.7c-0.1-0.4-0.3-0.7-0.7-1c-0.3-0.2-0.7-0.4-1.1-0.4c-0.4,0-0.8,0.1-1.1,0.4s-0.5,0.6-0.7,1
				c-0.2,0.4-0.3,1-0.3,1.8c0,0.8,0.1,1.4,0.3,1.7c0.1,0.4,0.4,0.7,0.7,1c0.3,0.2,0.7,0.4,1.2,0.4c0.5,0,0.9-0.1,1.2-0.4
				c0.3-0.2,0.5-0.5,0.6-0.9C183.8,26.3,183.8,25.7,183.8,24.9z"/>
			<path class="st3" d="M205.3,15.4c0.1,0.1,0.1,0.1,0.1,0.2v2.1c0,0.1,0,0.1-0.1,0.2c-0.1,0.1-0.1,0.1-0.2,0.1h-3.9
				c-0.1,0-0.1,0-0.1,0.1v12.3c0,0.1,0,0.1-0.1,0.2c-0.1,0.1-0.1,0.1-0.2,0.1h-2.6c-0.1,0-0.1,0-0.2-0.1c-0.1-0.1-0.1-0.1-0.1-0.2
				V18.1c0-0.1,0-0.1-0.1-0.1h-3.8c-0.1,0-0.1,0-0.2-0.1c-0.1-0.1-0.1-0.1-0.1-0.2v-2.1c0-0.1,0-0.1,0.1-0.2
				c0.1-0.1,0.1-0.1,0.2-0.1h11C205.2,15.4,205.2,15.4,205.3,15.4z"/>
			<path class="st3" d="M215.1,25.7c0,0.2-0.1,0.3-0.3,0.3H208c-0.1,0-0.1,0-0.1,0.1c0,0.3,0.1,0.6,0.2,0.9c0.4,0.8,1.2,1.2,2.3,1.2
				c0.9,0,1.7-0.4,2.2-1.1c0.1-0.1,0.1-0.1,0.2-0.1c0,0,0.1,0,0.2,0.1l1.6,1.6c0.1,0.1,0.1,0.1,0.1,0.2c0,0,0,0.1-0.1,0.2
				c-0.5,0.6-1.1,1.1-1.9,1.4c-0.8,0.3-1.6,0.5-2.5,0.5c-1.3,0-2.3-0.3-3.2-0.9c-0.9-0.6-1.5-1.4-1.9-2.4c-0.3-0.7-0.5-1.7-0.5-2.9
				c0-0.8,0.1-1.5,0.3-2.1c0.3-1,0.9-1.9,1.8-2.5c0.8-0.6,1.8-0.9,3-0.9c1.5,0,2.6,0.4,3.5,1.3c0.9,0.8,1.4,2,1.6,3.4
				C215.1,24.4,215.1,25.1,215.1,25.7z M208.1,23.2c-0.1,0.2-0.1,0.4-0.2,0.7c0,0.1,0,0.1,0.1,0.1h3.8c0.1,0,0.1,0,0.1-0.1
				c-0.1-0.4-0.1-0.6-0.1-0.6c-0.1-0.4-0.4-0.8-0.7-1c-0.3-0.2-0.7-0.4-1.2-0.4C209,21.9,208.4,22.3,208.1,23.2z"/>
			<path class="st3" d="M217.2,30.6c-0.1-0.1-0.1-0.1-0.1-0.2V15.6c0-0.1,0-0.1,0.1-0.2c0.1-0.1,0.1-0.1,0.2-0.1h2.6
				c0.1,0,0.1,0,0.2,0.1c0.1,0.1,0.1,0.1,0.1,0.2v14.8c0,0.1,0,0.1-0.1,0.2c-0.1,0.1-0.1,0.1-0.2,0.1h-2.6
				C217.4,30.7,217.3,30.6,217.2,30.6z"/>
			<path class="st3" d="M232.7,25.7c0,0.2-0.1,0.3-0.3,0.3h-6.8c-0.1,0-0.1,0-0.1,0.1c0,0.3,0.1,0.6,0.2,0.9
				c0.4,0.8,1.2,1.2,2.3,1.2c0.9,0,1.7-0.4,2.2-1.1c0.1-0.1,0.1-0.1,0.2-0.1c0,0,0.1,0,0.2,0.1l1.6,1.6c0.1,0.1,0.1,0.1,0.1,0.2
				c0,0,0,0.1-0.1,0.2c-0.5,0.6-1.1,1.1-1.9,1.4c-0.8,0.3-1.6,0.5-2.5,0.5c-1.3,0-2.3-0.3-3.2-0.9c-0.9-0.6-1.5-1.4-1.9-2.4
				c-0.3-0.7-0.5-1.7-0.5-2.9c0-0.8,0.1-1.5,0.3-2.1c0.3-1,0.9-1.9,1.8-2.5c0.8-0.6,1.8-0.9,3-0.9c1.5,0,2.6,0.4,3.5,1.3
				c0.9,0.8,1.4,2,1.6,3.4C232.7,24.4,232.8,25.1,232.7,25.7z M225.7,23.2c-0.1,0.2-0.1,0.4-0.2,0.7c0,0.1,0,0.1,0.1,0.1h3.8
				c0.1,0,0.1,0,0.1-0.1c-0.1-0.4-0.1-0.6-0.1-0.6c-0.1-0.4-0.4-0.8-0.7-1c-0.3-0.2-0.7-0.4-1.2-0.4C226.6,21.9,226,22.3,225.7,23.2
				z"/>
			<path class="st3" d="M249.9,20.3c0.6,0.7,1,1.6,1,2.9v7.2c0,0.1,0,0.1-0.1,0.2c-0.1,0.1-0.1,0.1-0.2,0.1h-2.6
				c-0.1,0-0.1,0-0.2-0.1c-0.1-0.1-0.1-0.1-0.1-0.2v-6.6c0-0.6-0.2-1.1-0.5-1.4c-0.3-0.3-0.7-0.5-1.2-0.5c-0.5,0-0.9,0.2-1.2,0.5
				c-0.3,0.3-0.5,0.8-0.5,1.4v6.6c0,0.1,0,0.1-0.1,0.2c-0.1,0.1-0.1,0.1-0.2,0.1h-2.5c-0.1,0-0.1,0-0.2-0.1
				c-0.1-0.1-0.1-0.1-0.1-0.2v-6.6c0-0.6-0.2-1.1-0.5-1.4c-0.3-0.4-0.7-0.5-1.2-0.5c-0.5,0-0.9,0.1-1.2,0.4
				c-0.3,0.3-0.5,0.7-0.6,1.2v6.9c0,0.1,0,0.1-0.1,0.2c-0.1,0.1-0.1,0.1-0.2,0.1h-2.6c-0.1,0-0.1,0-0.2-0.1
				c-0.1-0.1-0.1-0.1-0.1-0.2V19.7c0-0.1,0-0.1,0.1-0.2c0.1-0.1,0.1-0.1,0.2-0.1h2.6c0.1,0,0.1,0,0.2,0.1c0.1,0.1,0.1,0.1,0.1,0.2
				v0.9c0,0,0,0.1,0,0.1c0,0,0.1,0,0.1,0c0.6-0.9,1.5-1.3,2.8-1.3c0.7,0,1.4,0.2,1.9,0.5c0.5,0.3,1,0.7,1.3,1.3c0,0.1,0.1,0.1,0.2,0
				c0.3-0.6,0.8-1,1.3-1.3c0.5-0.3,1.2-0.4,1.8-0.4C248.4,19.2,249.3,19.6,249.9,20.3z"/>
			<path class="st3" d="M260.4,19.7c0.7,0.3,1.3,0.8,1.7,1.3c0.4,0.6,0.6,1.2,0.6,1.9v7.4c0,0.1,0,0.1-0.1,0.2
				c-0.1,0.1-0.1,0.1-0.2,0.1H260c-0.1,0-0.1,0-0.2-0.1c-0.1-0.1-0.1-0.1-0.1-0.2v-0.7c0,0,0-0.1,0-0.1c0,0-0.1,0-0.1,0
				c-0.6,0.8-1.6,1.2-3,1.2c-1.1,0-2.1-0.3-2.8-0.8c-0.7-0.6-1-1.4-1-2.4c0-1.1,0.4-2,1.2-2.6c0.8-0.6,1.9-0.9,3.4-0.9h2.2
				c0.1,0,0.1,0,0.1-0.1v-0.5c0-0.5-0.1-0.9-0.4-1.1c-0.3-0.3-0.7-0.4-1.3-0.4c-0.5,0-0.8,0.1-1.1,0.2c-0.3,0.2-0.5,0.4-0.6,0.7
				c0,0.2-0.1,0.2-0.3,0.2l-2.6-0.3c-0.2,0-0.3-0.1-0.2-0.2c0.1-0.6,0.3-1.2,0.7-1.7c0.4-0.5,1-0.9,1.7-1.2c0.7-0.3,1.5-0.4,2.4-0.4
				C258.9,19.2,259.7,19.4,260.4,19.7z M259.1,28c0.4-0.3,0.7-0.8,0.7-1.3V26c0-0.1,0-0.1-0.1-0.1H258c-0.7,0-1.2,0.1-1.5,0.4
				c-0.4,0.2-0.6,0.6-0.6,1c0,0.4,0.1,0.7,0.4,0.9c0.3,0.2,0.6,0.3,1.1,0.3C258.1,28.5,258.6,28.4,259.1,28z"/>
			<path class="st3" d="M272.2,19.6c0.1,0.1,0.2,0.2,0.1,0.3l-0.5,2.5c0,0.2-0.1,0.2-0.3,0.2c-0.2-0.1-0.5-0.1-0.8-0.1
				c-0.1,0-0.3,0-0.5,0c-0.5,0-1,0.2-1.3,0.6c-0.4,0.3-0.5,0.8-0.5,1.4v6c0,0.1,0,0.1-0.1,0.2c-0.1,0.1-0.1,0.1-0.2,0.1h-2.6
				c-0.1,0-0.1,0-0.2-0.1c-0.1-0.1-0.1-0.1-0.1-0.2V19.7c0-0.1,0-0.1,0.1-0.2c0.1-0.1,0.1-0.1,0.2-0.1h2.6c0.1,0,0.1,0,0.2,0.1
				c0.1,0.1,0.1,0.1,0.1,0.2v0.8c0,0,0,0.1,0,0.1c0,0,0.1,0,0.1,0c0.6-0.9,1.4-1.3,2.4-1.3C271.4,19.3,271.9,19.4,272.2,19.6z"/>
			<path class="st3" d="M274,30.6c-0.1-0.1-0.1-0.1-0.1-0.2V15.6c0-0.1,0-0.1,0.1-0.2c0.1-0.1,0.1-0.1,0.2-0.1h2.6
				c0.1,0,0.1,0,0.2,0.1c0.1,0.1,0.1,0.1,0.1,0.2V23c0,0,0,0.1,0,0.1c0,0,0.1,0,0.1,0l3-3.5c0.1-0.1,0.2-0.2,0.3-0.2h2.9
				c0.1,0,0.2,0.1,0.2,0.2c0,0,0,0.1-0.1,0.2l-2.8,3.5c0,0.1,0,0.1,0,0.2l3.3,6.9c0,0.1,0,0.1,0,0.1c0,0.1-0.1,0.2-0.2,0.2h-2.7
				c-0.1,0-0.2-0.1-0.3-0.2l-2.2-5.1c0,0,0,0-0.1-0.1c0,0-0.1,0-0.1,0l-1.4,1.7c0,0.1,0,0.1,0,0.1v3.2c0,0.1,0,0.1-0.1,0.2
				c-0.1,0.1-0.1,0.1-0.2,0.1h-2.6C274.1,30.7,274.1,30.6,274,30.6z"/>
		</g>
	</g>
	<g>
		<g>
			<g>
				<path class="st3" d="M78.1,53.7v-9.5h5.7v1.1h-4.4v3h4.2v1.1h-4.2v4.3H78.1z"/>
				<path class="st3" d="M94.2,44.2l-3.6,5.1v4.4h-1.3v-4.4l-3.6-5.1h1.5l2.8,3.9l2.8-3.9H94.2z"/>
				<path class="st3" d="M96.3,53.7v-9.5h1.3v8.3h4.4v1.2H96.3z"/>
				<path class="st3" d="M111.8,53.7h-1.7l-4.4-4.5v4.5h-1.3v-9.5h1.3v4.3l4.2-4.3h1.6l-4.6,4.6L111.8,53.7z"/>
				<path class="st3" d="M114,53.7v-9.5h5.9v1.1h-4.6v3h4.3v1.1h-4.3v3.1h4.6v1.1H114z"/>
				<path class="st3" d="M123.7,53.5c-0.6-0.2-1.1-0.5-1.5-0.9l0.5-1c0.4,0.4,0.9,0.6,1.4,0.8c0.5,0.2,1,0.2,1.6,0.2
					c0.7,0,1.2-0.1,1.6-0.4c0.4-0.3,0.6-0.6,0.6-1.1c0-0.4-0.2-0.7-0.5-0.9c-0.3-0.2-0.9-0.4-1.6-0.6c-0.7-0.2-1.3-0.3-1.8-0.6
					c-0.5-0.2-0.8-0.5-1.1-0.8c-0.3-0.4-0.4-0.8-0.4-1.4c0-0.6,0.1-1,0.4-1.5c0.3-0.4,0.7-0.8,1.2-1c0.5-0.2,1.1-0.4,1.8-0.4
					c0.6,0,1.2,0.1,1.8,0.3c0.6,0.2,1,0.5,1.4,0.9l-0.5,1c-0.4-0.4-0.8-0.6-1.3-0.8c-0.4-0.2-0.9-0.3-1.4-0.3
					c-0.6,0-1.2,0.1-1.5,0.4c-0.4,0.3-0.6,0.7-0.6,1.2c0,0.4,0.2,0.8,0.5,1c0.3,0.2,0.8,0.4,1.6,0.6c0.8,0.2,1.4,0.4,1.8,0.6
					c0.5,0.2,0.8,0.5,1.1,0.8c0.3,0.3,0.4,0.8,0.4,1.3c0,0.5-0.1,1-0.4,1.4c-0.3,0.4-0.7,0.7-1.2,1c-0.5,0.2-1.1,0.3-1.8,0.3
					C124.9,53.8,124.3,53.7,123.7,53.5z"/>
				<path class="st3" d="M139.2,53.7h-1.7l-4.4-4.5v4.5h-1.3v-9.5h1.3v4.3l4.2-4.3h1.6l-4.6,4.6L139.2,53.7z"/>
				<path class="st3" d="M142.2,53.2c-0.6-0.4-1.1-1-1.5-1.7c-0.3-0.7-0.5-1.6-0.5-2.6c0-1,0.2-1.9,0.5-2.6c0.3-0.7,0.8-1.3,1.5-1.7
					c0.6-0.4,1.4-0.6,2.2-0.6c0.9,0,1.6,0.2,2.2,0.6c0.6,0.4,1.1,1,1.5,1.7c0.3,0.7,0.5,1.6,0.5,2.6c0,1-0.2,1.8-0.5,2.6
					c-0.3,0.7-0.8,1.3-1.5,1.7c-0.6,0.4-1.4,0.6-2.2,0.6C143.6,53.8,142.8,53.6,142.2,53.2z M146.5,51.7c0.5-0.6,0.8-1.6,0.8-2.8
					c0-1.2-0.2-2.1-0.7-2.8c-0.5-0.6-1.2-1-2.1-1c-0.9,0-1.6,0.3-2.1,1c-0.5,0.6-0.7,1.6-0.7,2.8c0,1.2,0.2,2.1,0.7,2.8
					c0.5,0.6,1.2,1,2.1,1C145.3,52.7,146,52.4,146.5,51.7z"/>
				<path class="st3" d="M159.1,44.2h1v9.5h-1.2l0-6.9l-2.7,5.3h-0.9l-2.7-5.3l0,6.8h-1.2v-9.5h1.1l3.3,6.6L159.1,44.2z"/>
				<path class="st3" d="M171,44.2h1v9.5h-1.2l0-6.9l-2.7,5.3h-0.9l-2.7-5.3l0,6.8h-1.2v-9.5h1.1l3.3,6.6L171,44.2z"/>
				<path class="st3" d="M176.1,52.8c-0.6-0.7-0.9-1.6-0.9-2.9v-5.7h1.3V50c0,0.9,0.2,1.5,0.6,2c0.4,0.4,1,0.7,1.8,0.7
					c0.8,0,1.4-0.2,1.8-0.7c0.4-0.4,0.6-1.1,0.6-2v-5.8h1.3v5.7c0,1.3-0.3,2.2-0.9,2.9c-0.6,0.7-1.5,1-2.7,1
					C177.7,53.8,176.7,53.5,176.1,52.8z"/>
				<path class="st3" d="M191.9,44.2h1.2v9.5h-1l-5.2-7.2v7.2h-1.2v-9.5h1l5.2,7.2V44.2z"/>
				<path class="st3" d="M196.4,53.7v-9.5h5.9v1.1h-4.6v3h4.3v1.1h-4.3v3.1h4.6v1.1H196.4z"/>
			</g>
		</g>
	</g>
</g>
</svg>
